<?xml version="1.0" encoding="UTF-8"?>
<!DOCTYPE svg PUBLIC "-//W3C//DTD SVG 1.1//EN" "http://www.w3.org/Graphics/SVG/1.1/DTD/svg11.dtd">
<!-- Creator: CorelDRAW 2021.5 -->
<svg xmlns="http://www.w3.org/2000/svg" xml:space="preserve" width="75px" height="75px" version="1.1" style="shape-rendering:geometricPrecision; text-rendering:geometricPrecision; image-rendering:optimizeQuality; fill-rule:evenodd; clip-rule:evenodd"
viewBox="0 0 75 75"
 xmlns:xlink="http://www.w3.org/1999/xlink"
 xmlns:xodm="http://www.corel.com/coreldraw/odm/2003">
 <defs>
  <style type="text/css">
   <![CDATA[
    .fil2 {fill:#598B38}
    .fil4 {fill:#D840A8}
    .fil0 {fill:#F0F0F0}
    .fil1 {fill:#F5B221}
    .fil3 {fill:#FDFEFD}
   ]]>
  </style>
 </defs>
 <g id="Layer_x0020_1">
  <metadata id="CorelCorpID_0Corel-Layer"/>
  <path class="fil0" d="M53.8 37.09c-0.03,6.01 0.08,12.05 0,18.06 -0.03,2.8 -2.43,4.38 -4.92,2.9 -0.99,-0.59 -1.76,-1.14 -2.89,-1.65 -0.8,-0.36 -2.83,-1.02 -3.18,-1.31 -0.55,0.05 -3.06,-0.53 -4.09,-0.61 -1.62,-0.13 -2.95,-0.02 -4.55,0.11 -2.56,0.27 -5.48,1.34 -7.42,2.46 -0.94,0.54 -2.1,1.53 -3.38,1.55 -1.54,0.01 -2.53,-0.89 -2.94,-1.98 -0.69,-1.83 0.23,-16.5 -0.28,-19.49l-1.89 -0.94c-0.05,2.93 -0.01,5.91 -0.01,8.84 0,2.83 0.59,5.83 -1.74,6.92l-0.83 0.24c-0.52,0.28 -1.33,0.04 -1.84,-0.16 -1.34,-0.7 -1.85,-1.59 -1.84,-3.63 0,-1.85 0,-3.71 0,-5.56 0,-3.73 0,-7.46 0,-11.19 -0.05,-1.89 0.61,-2.74 1.93,-3.39 1.23,-0.61 2.32,-1.14 3.55,-1.73 1.23,-0.58 6.49,-3.31 7.26,-3.4 0.59,-0.71 5.57,-2.83 6.81,-3.47 1.14,-0.58 2.29,-1.09 3.47,-1.66 1.12,-0.54 2.67,-1.02 3.74,-0.05 1.28,0.37 3.27,1.52 4.55,2.16 1.47,0.73 3,1.39 4.4,2.13l12.55 6.13c2.51,1.39 2.15,4.46 -0.25,5.69 -2.11,1.07 -4.14,2.01 -6.21,3.03zm-17.97 -34.98c-0.35,0.08 -1.61,-0.03 -2.16,0.04 -6.91,0.92 -12.26,2.67 -17.93,6.82l-2.51 2.04c-1.28,1.28 -1.14,0.81 -2.79,2.78l-1.57 1.8c-1.21,1.55 -2.72,3.67 -3.61,5.46 -2.23,4.46 -3.73,8.71 -4.14,13.88 -0.07,0.79 -0.03,1.44 -0.12,2.09 -0.14,1 0.2,5.08 0.4,6.26 1.17,6.8 3.3,11.83 7.54,17.22l3.27 3.61c0.27,0.24 0.31,0.22 0.58,0.45 1.48,1.24 2.39,2.26 4.43,3.48 2.75,1.65 2.79,1.77 5.91,3.16 1.93,0.87 4.75,1.67 6.85,2.09 1.15,0.23 2.75,0.5 3.95,0.59 3.05,0.24 5.34,0.12 8.33,-0.29 3.58,-0.49 7.28,-1.64 10.41,-3.22 3.29,-1.65 6.61,-3.84 9.27,-6.4 1.54,-1.49 4.1,-4.53 5.1,-6.19 2.65,-4.41 4.15,-7.28 5.25,-12.76 0.39,-1.93 0.95,-6.32 0.66,-8.25l-0.36 -4.03c-0.49,-3.58 -1.65,-7.28 -3.22,-10.41 -1.15,-2.3 -3.47,-6.18 -5.38,-8.1l-2.2 -2.34c-1.06,-1.03 -3.86,-3.24 -5.01,-3.93 -0.93,-0.56 -1.77,-1.17 -2.83,-1.7 -4.44,-2.22 -8.73,-3.74 -13.88,-4.14 -0.79,-0.06 -1.44,-0.03 -2.09,-0.12 -0.57,-0.07 -1.48,-0.11 -2.05,0.07 -0.02,0 -0.07,0.03 -0.1,0.04z"/>
  <path class="fil1" d="M34.19 43.97l-9.32 -4.64 -4.72 -2.2c0.51,2.99 -0.41,17.66 0.28,19.49 0.41,1.09 1.4,1.99 2.94,1.98 1.28,-0.02 2.44,-1.01 3.38,-1.55 1.94,-1.12 4.86,-2.19 7.42,-2.46 1.6,-0.13 2.93,-0.24 4.55,-0.11 1.03,0.08 3.54,0.66 4.09,0.61 0.35,0.29 2.38,0.95 3.18,1.31 1.13,0.51 1.9,1.06 2.89,1.65 2.49,1.48 4.89,-0.1 4.92,-2.9 0.08,-6.01 -0.03,-12.05 0,-18.06l-6.13 3 -4.64 2.29 -3.57 1.68c-2.68,1.67 -2.94,0.63 -5.27,-0.09z"/>
  <path class="fil2" d="M12 31.65c0.54,1.47 0.64,1.66 1.83,2.38l1.53 0.78 1.14 0.53 1.76 0.85 1.89 0.94 4.72 2.2 9.32 4.64c2.33,0.72 2.59,1.76 5.27,0.09l3.57 -1.68 4.64 -2.29 6.13 -3c2.07,-1.02 4.1,-1.96 6.21,-3.03 2.4,-1.23 2.76,-4.3 0.25,-5.69l-12.55 -6.13c-1.4,-0.74 -2.93,-1.4 -4.4,-2.13 -1.28,-0.64 -3.27,-1.79 -4.55,-2.16 -1.07,-0.97 -2.62,-0.49 -3.74,0.05 -1.18,0.57 -2.33,1.08 -3.47,1.66 -1.24,0.64 -6.22,2.76 -6.81,3.47 -0.77,0.09 -6.03,2.82 -7.26,3.4 -1.23,0.59 -2.32,1.12 -3.55,1.73 -1.32,0.65 -1.98,1.5 -1.93,3.39zm27.35 1.66c-0.33,0.07 -0.78,0.6 -1.41,0.8 -3.66,1.14 -5.54,-3.92 -2.67,-5.6 1.55,-0.91 2.06,-0.38 3.43,-0.06 1.04,1.26 2.22,1.69 0.65,4.86z"/>
  <path class="fil3" d="M39.35 33.31c1.57,-3.17 0.39,-3.6 -0.65,-4.86 -1.37,-0.32 -1.88,-0.85 -3.43,0.06 -2.87,1.68 -0.99,6.74 2.67,5.6 0.63,-0.2 1.08,-0.73 1.41,-0.8z"/>
  <path class="fil4" d="M13.84 52.03c0.51,0.2 1.32,0.44 1.84,0.16l0.83 -0.24c2.33,-1.09 1.74,-4.09 1.74,-6.92 0,-2.93 -0.04,-5.91 0.01,-8.84l-1.76 -0.85 -1.14 -0.53 -1.53 -0.78c-1.19,-0.72 -1.29,-0.91 -1.83,-2.38 0,3.73 0,7.46 0,11.19 0,1.85 0,3.71 0,5.56 -0.01,2.04 0.5,2.93 1.84,3.63z"/>
 </g>
</svg>
