<?xml version="1.0" encoding="UTF-8"?>
<!DOCTYPE svg PUBLIC "-//W3C//DTD SVG 1.1//EN" "http://www.w3.org/Graphics/SVG/1.1/DTD/svg11.dtd">
<!-- Creator: CorelDRAW 2021.5 -->
<svg xmlns="http://www.w3.org/2000/svg" xml:space="preserve" width="14.8166mm" height="14.8166mm" version="1.1" style="shape-rendering:geometricPrecision; text-rendering:geometricPrecision; image-rendering:optimizeQuality; fill-rule:evenodd; clip-rule:evenodd"
viewBox="0 0 1481.66 1481.66"
 xmlns:xlink="http://www.w3.org/1999/xlink"
 xmlns:xodm="http://www.corel.com/coreldraw/odm/2003">
 <defs>
  <style type="text/css">
   <![CDATA[
    .fil2 {fill:#194A7C}
    .fil1 {fill:#1E467A}
    .fil4 {fill:#31417A}
    .fil0 {fill:#393979}
    .fil10 {fill:#454A83}
    .fil8 {fill:#4C3A81}
    .fil3 {fill:#55337C}
    .fil5 {fill:#5C3481}
    .fil13 {fill:#664889}
    .fil9 {fill:#686F9B}
    .fil7 {fill:#79659B}
    .fil6 {fill:#8679A8}
    .fil11 {fill:#F1F0F1}
    .fil12 {fill:#F8F8F8}
   ]]>
  </style>
 </defs>
 <g id="Layer_x0020_1">
  <metadata id="CorelCorpID_0Corel-Layer"/>
  <g id="_2391921016016">
   <path class="fil0" d="M616.63 799.17c6.73,5.45 104.2,29.81 127.41,39.38 19.52,8.04 38.32,19.35 39.64,43.65 1.47,26.86 -14.01,40.38 -35.33,47.96 -64.98,23.09 -171.89,-4.96 -234.37,-37.71 -7.86,-4.12 -19.08,-11.97 -26.28,-14.66 -3.69,4.64 -38.95,129.21 -40.34,141.46 12.95,11.07 84.65,34.53 108.13,39.6 113.54,24.5 271.43,33.8 351.94,-52.23 22.34,-23.88 42.87,-53.56 47.68,-98.96 9.32,-88.05 -18.65,-151.25 -98.58,-189.5 -27.49,-13.16 -77.74,-32.47 -109.47,-37.88 2.24,2.48 0.21,2.95 4.5,4.04 -25.7,0.78 -16.88,9.7 -24.29,18.36l-1.81 1.53c-4,3.89 -5.97,7.41 -6.46,13.29 -0.31,-0.11 -0.68,-0.48 -0.82,-0.57 -0.13,-0.08 -0.62,-0.44 -0.79,-0.55 -4.52,-2.87 4.11,-1.61 -5.04,-2.21 4.08,7.82 1.4,2.89 -1.24,6.84 -0.19,0.29 -0.54,0.67 -0.75,0.97l-1.53 15.84c0,-0.18 -0.05,0.53 0.07,0.74l9.29 2.08c7.28,1.21 6.19,-0.11 6.61,4.63 0.55,6.23 -0.54,5.58 -6.29,7.02 -7.14,1.79 -5.55,6.02 -5.9,4.95 -0.08,-0.27 -0.25,0.83 -0.48,1.19 -11.4,0.25 -5.58,1.23 -13.14,3.3 3.78,-5.24 2.78,-0.86 3.17,-8.12 -5.16,-1.22 -4.7,-2.12 -9.76,-3.3 -0.18,13.37 -7.45,10.39 -13.28,9.85 -0.01,8.5 1.13,8.44 1.66,14.81 -4.07,0.83 -5.97,1.56 -11.45,1.54l3.36 -1.37c0.33,-0.13 0.87,-0.31 1.19,-0.43 2.6,-0.93 0.43,0.28 3.7,-1.2 -1.71,-3.6 -1.59,-2.9 -1.72,-8.38 -0.32,0.04 -4.78,0.32 -4.98,0.31 -0.41,-0.01 -1.37,-0.24 -1.72,-0.24 -5.48,-0.1 -2.28,2.57 -9.36,2.23 -6.58,-0.32 -2.26,-1.94 -7.22,0.71l-2.43 1.27c-0.19,0.05 -0.67,0.12 -0.88,0.14l-14.01 -0.47c-11.17,-1.41 -11.86,-9.82 -18.89,-2.65 -4.06,4.14 -0.28,3.73 -5.29,5.77 -0.98,-2.75 -1.21,-7.92 -1.68,-13.27 -3.18,1.12 -4.79,2.64 -7.49,5.27l5.04 0.45c-1.35,17.04 -9.43,6.42 -16.65,18.62 5.35,6.18 26.52,12.28 34.83,14.39 7.04,1.79 5.86,2.26 10.98,5.06 -8.47,-1.47 -12.17,-4.62 -19.48,-3.55z"/>
   <path class="fil1" d="M616.63 799.17c7.31,-1.07 11.01,2.08 19.48,3.55 -5.12,-2.8 -3.94,-3.27 -10.98,-5.06 -8.31,-2.11 -29.48,-8.21 -34.83,-14.39 7.22,-12.2 15.3,-1.58 16.65,-18.62l-5.04 -0.45c2.7,-2.63 4.31,-4.15 7.49,-5.27 0.47,5.35 0.7,10.52 1.68,13.27 5.01,-2.04 1.23,-1.63 5.29,-5.77 7.03,-7.17 7.72,1.24 18.89,2.65l14.01 0.47c0.21,-0.02 0.69,-0.09 0.88,-0.14l2.43 -1.27c4.96,-2.65 0.64,-1.03 7.22,-0.71 7.08,0.34 3.88,-2.33 9.36,-2.23 0.35,0 1.31,0.23 1.72,0.24 0.2,0.01 4.66,-0.27 4.98,-0.31 0.13,5.48 0.01,4.78 1.72,8.38 -3.27,1.48 -1.1,0.27 -3.7,1.2 -0.32,0.12 -0.86,0.3 -1.19,0.43l-3.36 1.37c5.48,0.02 7.38,-0.71 11.45,-1.54 -0.53,-6.37 -1.67,-6.31 -1.66,-14.81 5.83,0.54 13.1,3.52 13.28,-9.85 5.06,1.18 4.6,2.08 9.76,3.3 -0.39,7.26 0.61,2.88 -3.17,8.12 7.56,-2.07 1.74,-3.05 13.14,-3.3 0.23,-0.36 0.4,-1.46 0.48,-1.19 0.35,1.07 -1.24,-3.16 5.9,-4.95 5.75,-1.44 6.84,-0.79 6.29,-7.02 -0.42,-4.74 0.67,-3.42 -6.61,-4.63l-9.29 -2.08c-0.12,-0.21 -0.07,-0.92 -0.07,-0.74l1.53 -15.84c0.21,-0.3 0.56,-0.68 0.75,-0.97 2.64,-3.95 5.32,0.98 1.24,-6.84 9.15,0.6 0.52,-0.66 5.04,2.21 0.17,0.11 0.66,0.47 0.79,0.55 0.14,0.09 0.51,0.46 0.82,0.57 0.49,-5.88 2.46,-9.4 6.46,-13.29l1.81 -1.53c7.41,-8.66 -1.41,-17.58 24.29,-18.36 -4.29,-1.09 -2.26,-1.56 -4.5,-4.04 -6.17,-4.69 -75.05,-18.5 -105.4,-34.49 -42,-22.11 -29.02,-67.08 8.98,-82.26 57.79,-23.08 147.68,-5 205.53,22.69 6.76,3.24 18.15,10.24 24.29,11.64 6.7,-12.88 36,-125.83 36.64,-133.09 -12.91,-10.68 -78.15,-28.99 -97.47,-33.15 -100.57,-21.68 -246.01,-12.02 -316.29,57.04 -21.86,21.48 -39.27,48.33 -46.18,84.46 -14.33,74.92 0.98,146.76 66.46,187.36 15.03,9.32 74.21,39.59 93.01,38.69z"/>
   <path class="fil2" d="M194.34 983.27c6.69,-44.99 0.2,-180.68 3.65,-236.31 0.3,-4.8 -0.46,-0.26 4.67,-2.49 0.15,-0.07 0.6,-0.35 0.75,-0.41 0.16,-0.07 0.61,-0.32 0.77,-0.37 1.75,-0.58 -0.7,-1.19 2.08,-0.33 4.01,1.24 0.59,-0.14 1.86,2.19l0.69 1.78c2.77,-1.02 2.35,-1.41 3.24,-1.99l2.38 -1.65c0.15,-0.1 0.54,-0.33 0.69,-0.42l5.98 -6.87 -9.21 -11.36c-1.46,-8.85 3.47,4.31 12.95,-5.63 2.22,8.34 0.97,-0.72 -1.61,9.88 12.91,1.12 12.25,-0.46 13.32,13.08 2.02,-2.52 0.59,-0.11 1.96,-3.75 0.42,-1.14 0.73,-3.29 1.1,-4.45l1.64 229.6c-3.78,-5.46 0.84,-439.52 2.87,-444.19 7.29,-23.77 10.21,-40.98 36.09,-57.6 18.98,-12.19 39.71,-23.31 59.46,-34.63 100.74,-57.73 196.12,-116.04 297.2,-173.24 19.33,-10.94 39.81,-27.14 65.47,-29.73 35.43,-3.58 48.88,8.86 71.64,21.79 76.93,43.72 158.86,95.36 235.96,140.35l117.8 70.27c15.09,11.32 30.93,35.49 32.97,61.61 0.24,0.43 0.5,0.61 0.58,1.37 0.07,0.77 0.42,1.02 0.52,1.41l1 22.8c0.24,30.79 2.59,176.43 0.82,182.99l0.95 -34.64c6.97,-0.19 4.85,-1.92 6.32,-4.98 6.83,2.56 1.22,2.61 5.14,1.43 0.18,-0.05 0.58,-0.32 0.78,-0.4l5.71 -2.51c12.01,10.36 0.9,4.81 9.82,9.57l2.64 -5.27c0.13,-0.25 0.41,-0.78 0.66,-1.14l2.78 2.01c0.14,0.11 0.51,0.41 0.67,0.52l8.32 3.98c0.11,5.11 -1,9.07 1.95,11.82 -0.35,-32.71 0.48,-66.19 0.64,-99.02 0.08,-16.5 -0.02,-33.01 -0.15,-49.51 -0.1,-12.67 -1.56,-38.86 0.08,-49.67 4.33,-25.43 -22.6,-68.51 -45.33,-87.62 -12.19,-10.25 -26.04,-16.97 -41.41,-26.16 -14.18,-8.46 -27.93,-16.27 -42.51,-25.2 -15.44,-9.46 -27.94,-16.35 -42.42,-25.22l-211.9 -126.46c-28.45,-16.44 -54.09,-38.14 -91.96,-43.43 -50.79,-7.09 -74.38,7.69 -107.42,26.42 -28.3,16.03 -58.42,33.39 -85.22,49.86 -51.79,31.84 -116.14,67.02 -170.27,98.83 -30.17,17.72 -55.6,32.65 -85.36,50.15 -33.37,19.6 -54.06,28.51 -73.71,61.37 -23.63,39.54 -18.58,64.41 -18.79,116.94 -0.17,45.1 0.08,90.21 0.04,135.31 -0.07,89.13 -1.76,180.52 0.66,269.32z"/>
   <path class="fil3" d="M464.84 1139.09c-3.18,3.09 -6.53,5.27 -11.88,5.93l1.8 7.98c-8.54,0.28 -5.56,0.86 -10.9,2.48l-12.42 2.89c-0.84,0.23 -0.72,1.37 -6.16,-0.18 -1.03,13.02 -0.13,3.89 1.67,13.41l-6.54 -1.56 73.72 44.06c24.5,13.49 52.08,29.96 74.49,42.67 57.89,32.83 104.45,71.93 171.77,56.72 32.42,-7.32 53.9,-25.14 78.73,-38.8 23.37,-12.86 50.2,-29.26 74.1,-43l147.01 -86.15c0.16,-0.56 0.66,-0.57 0.98,-0.87 -3.4,-6.74 -9.96,-12.36 -15.62,-19.79 -4.88,-6.42 -8.33,-14.02 -13.11,-19.8l-66.62 38.95c-21.4,12.1 -44.39,25.35 -65.96,38.06 -21.62,12.75 -46.6,26.98 -66.96,38.71 -57.52,33.1 -91.66,65.44 -149.42,31.93l-165.51 -95.22c-10.39,-5.96 -23.92,-14.85 -33.17,-18.42z"/>
   <path class="fil4" d="M194.34 983.27c16.47,68.67 42.2,82.17 94.65,112.54 22.93,13.28 43.18,25.03 65.83,38.24 8.03,4.68 59.92,34.84 65.59,35.99l6.54 1.56c-1.8,-9.52 -2.7,-0.39 -1.67,-13.41 5.44,1.55 5.32,0.41 6.16,0.18l12.42 -2.89c5.34,-1.62 2.36,-2.2 10.9,-2.48l-1.8 -7.98c5.35,-0.66 8.7,-2.84 11.88,-5.93 -42.45,-26.64 -90.62,-51.66 -133.68,-77.18 -57.68,-34.17 -87.12,-37.7 -87.3,-121.87 -0.16,-70.41 -0.03,-140.82 -0.08,-211.23 -0.04,-51.9 -2.25,-164.59 0.34,-209.23 -2.03,4.67 -6.65,438.73 -2.87,444.19l-1.64 -229.6c-0.37,1.16 -0.68,3.31 -1.1,4.45 -1.37,3.64 0.06,1.23 -1.96,3.75 -1.07,-13.54 -0.41,-11.96 -13.32,-13.08 2.58,-10.6 3.83,-1.54 1.61,-9.88 -9.48,9.94 -14.41,-3.22 -12.95,5.63l9.21 11.36 -5.98 6.87c-0.15,0.09 -0.54,0.32 -0.69,0.42l-2.38 1.65c-0.89,0.58 -0.47,0.97 -3.24,1.99l-0.69 -1.78c-1.27,-2.33 2.15,-0.95 -1.86,-2.19 -2.78,-0.86 -0.33,-0.25 -2.08,0.33 -0.16,0.05 -0.61,0.3 -0.77,0.37 -0.15,0.06 -0.6,0.34 -0.75,0.41 -5.13,2.23 -4.37,-2.31 -4.67,2.49 -3.45,55.63 3.04,191.32 -3.65,236.31z"/>
   <path class="fil5" d="M1073.39 1072.06c-10.54,-47.93 58.74,-59.22 66.58,-16.42 8.91,48.66 -57.8,56.41 -66.58,16.42zm-36.68 14.09c4.85,6.67 6.06,14.32 12.21,22.04 44.6,55.93 132.84,24.08 130.45,-47.74 -1.97,-59.29 -71.69,-89.96 -119.97,-51.99 -22.62,17.8 -19.69,37.25 -27.12,39.07 -40.17,0.05 -80.36,0.01 -120.52,-0.1 -14.38,-0.04 -12.87,0.79 -22.61,6.83l-39.11 20.37c-3.7,1.59 -6.52,2.84 -10.43,4.28 -0.92,0.34 -5.47,2.08 -6.1,2.53 -4.47,3.17 -1.44,-0.49 -3.89,4.53l207.09 0.18z"/>
   <path class="fil6" d="M995.04 906.48l77.23 1.63 39.4 0.23c8.73,-0.95 19.25,0.43 27.28,3.35 6.58,2.4 3.36,-0.15 7.16,3.56l18.82 23.23c0.26,0.31 0.66,0.83 1.02,1.22 0.88,-0.09 4.94,-0.81 5.4,-0.82 2.15,-0.03 0.49,-0.55 4.33,0.64 -3.73,-16.1 -4.13,-25.72 5.23,-37.31 15.01,-18.61 47.18,-16.62 58.09,7.8 7.15,15.99 0.11,24.18 -3.72,35.99 0.41,-0.12 1.02,-0.8 1.19,-0.41 0.23,0.52 1.86,-0.5 2.24,-0.49 1.23,0 1.03,-0.47 3.77,1.08 0.27,0.15 0.66,0.5 0.93,0.67l10.83 4.09c5.98,0.42 4.67,0.18 7.55,-4.15 6.73,4.98 4.34,7.3 9.77,1.39l1.17 3.94c7.6,-5.96 7.69,-21.88 7.25,-31.95 -2.18,-49.6 -62.12,-87.58 -111.02,-56.38 -23.57,15.04 -23.65,26.89 -32.72,43.08l-141.2 -0.39z"/>
   <path class="fil7" d="M1014.73 943.35l0.11 3.38 123.77 -0.57c5.62,17.08 10.74,25.58 23.04,34.57 27.56,20.15 60.1,22.22 87.47,2.84 6.4,-4.54 24.2,-20.91 23.61,-31.45l-1.17 -3.94c-5.43,5.91 -3.04,3.59 -9.77,-1.39 -2.88,4.33 -1.57,4.57 -7.55,4.15l-10.83 -4.09c-0.27,-0.17 -0.66,-0.52 -0.93,-0.67 -2.74,-1.55 -2.54,-1.08 -3.77,-1.08 -0.38,-0.01 -2.01,1.01 -2.24,0.49 -0.17,-0.39 -0.78,0.29 -1.19,0.41 -12.02,6.75 -12.11,14.51 -32.98,12.15 -6.2,-0.7 -11.22,-2.77 -16.28,-6.76 -5.17,-4.08 -6.64,-8.6 -10.34,-11.87 -3.84,-1.19 -2.18,-0.67 -4.33,-0.64 -0.46,0.01 -4.52,0.73 -5.4,0.82 -0.36,-0.39 -0.76,-0.91 -1.02,-1.22l-18.82 -23.23c-3.8,-3.71 -0.58,-1.16 -7.16,-3.56 -8.03,-2.92 -18.55,-4.3 -27.28,-3.35l-3.83 1.51c-0.48,0.13 -0.9,0.22 -1.42,0.34l-13.04 1.9c2.14,2.94 3.37,3.15 3.98,3.95 4.09,5.31 -2.29,2.22 6.39,11.94 10.43,11.67 7.7,2.73 6.08,12.07 7.57,0.06 18.75,4.31 25.51,1.65 -41.44,4.26 -79.92,1.65 -120.61,1.65z"/>
   <path class="fil8" d="M1014.84 946.73l-0.11 -3.38 43.18 -1.14c-3.24,-2.74 -6.46,-3.84 -10.17,-6.23 6.18,-10.01 -5.69,-19.64 -10.03,-24.53 7.97,-0.15 24.69,0.27 32.02,-2.06 0.35,-0.11 1.04,-0.05 1.29,-0.61 0.24,-0.56 0.87,-0.39 1.25,-0.67l-77.23 -1.63c-6.1,3.05 -6.33,6.53 -8.9,13.75 -5.84,16.41 -10.11,30.71 -17.83,46.32 -12.6,25.47 -32.04,45.45 -33.59,51.01l39.58 -0.23c6.25,-12.16 13.18,-23.51 20.63,-35.42 4.82,-7.71 18.61,-29.56 19.91,-35.18z"/>
   <path class="fil9" d="M1209.37 707.36l-2.39 54.62c-8.02,2.1 -4.98,1.01 -11.34,-0.05 -5.93,-0.98 -7.03,2.33 -12.04,2.59 -3.47,0.18 -1.42,0.15 -3.46,-0.47l-3.22 -1.61c-11.24,-5.72 -10.46,-2.58 -12.99,5.18 -0.13,-5.78 -0.35,-11.59 -0.59,-17.37l-2.38 -14.83 0.79 97.21c6.06,0.3 16.64,-3.93 23.21,-5.56 9.86,-2.44 17.5,-1.14 26.41,-3.01 2.26,-51.03 0.8,-106.55 0.62,-157.96 -0.03,-7.4 2.33,-149.45 -2.05,-156.94 -1.64,10.81 -0.18,37 -0.08,49.67 0.13,16.5 0.23,33.01 0.15,49.51 -0.16,32.83 -0.99,66.31 -0.64,99.02z"/>
   <path class="fil10" d="M1160.96 735.42l2.38 14.83c0.24,5.78 0.46,11.59 0.59,17.37 2.53,-7.76 1.75,-10.9 12.99,-5.18l3.22 1.61c2.04,0.62 -0.01,0.65 3.46,0.47 5.01,-0.26 6.11,-3.57 12.04,-2.59 6.36,1.06 3.32,2.15 11.34,0.05l2.39 -54.62c-2.95,-2.75 -1.84,-6.71 -1.95,-11.82l-8.32 -3.98c-0.16,-0.11 -0.53,-0.41 -0.67,-0.52l-2.78 -2.01c-0.25,0.36 -0.53,0.89 -0.66,1.14l-2.64 5.27c-8.92,-4.76 2.19,0.79 -9.82,-9.57l-5.71 2.51c-0.2,0.08 -0.6,0.35 -0.78,0.4 -3.92,1.18 1.69,1.13 -5.14,-1.43 -1.47,3.06 0.65,4.79 -6.32,4.98l-0.95 34.64c1.77,-6.56 -0.58,-152.2 -0.82,-182.99l-1 -22.8c-0.1,-0.39 -0.45,-0.64 -0.52,-1.41 -0.08,-0.76 -0.34,-0.94 -0.58,-1.37l0.25 217.02z"/>
   <path class="fil11" d="M1073.39 1072.06c8.78,39.99 75.49,32.24 66.58,-16.42 -7.84,-42.8 -77.12,-31.51 -66.58,16.42z"/>
   <path class="fil12" d="M1175.68 939.52c3.7,3.27 5.17,7.79 10.34,11.87 5.06,3.99 10.08,6.06 16.28,6.76 20.87,2.36 20.96,-5.4 32.98,-12.15 3.83,-11.81 10.87,-20 3.72,-35.99 -10.91,-24.42 -43.08,-26.41 -58.09,-7.8 -9.36,11.59 -8.96,21.21 -5.23,37.31z"/>
   <path class="fil13" d="M1014.73 943.35c40.69,0 79.17,2.61 120.61,-1.65 -6.76,2.66 -17.94,-1.59 -25.51,-1.65 1.62,-9.34 4.35,-0.4 -6.08,-12.07 -8.68,-9.72 -2.3,-6.63 -6.39,-11.94 -0.61,-0.8 -1.84,-1.01 -3.98,-3.95l13.04 -1.9c0.52,-0.12 0.94,-0.21 1.42,-0.34l3.83 -1.51 -39.4 -0.23c-0.38,0.28 -1.01,0.11 -1.25,0.67 -0.25,0.56 -0.94,0.5 -1.29,0.61 -7.33,2.33 -24.05,1.91 -32.02,2.06 4.34,4.89 16.21,14.52 10.03,24.53 3.71,2.39 6.93,3.49 10.17,6.23l-43.18 1.14z"/>
  </g>
 </g>
</svg>
